<mxfile host="app.diagrams.net" modified="2022-03-01T06:55:00.311Z" agent="5.0 (X11; Linux x86_64) AppleWebKit/537.36 (KHTML, like Gecko) Chrome/96.0.4664.93 Safari/537.36" etag="W-Ph5vmJLdrQsvbPPo27" version="16.6.4" type="github">
  <diagram id="lZtI8qbh0fw-rAP5nsD9" name="Page-1">
    <mxGraphModel dx="338" dy="537" grid="1" gridSize="10" guides="1" tooltips="1" connect="1" arrows="1" fold="1" page="1" pageScale="1" pageWidth="100" pageHeight="100" math="0" shadow="0">
      <root>
        <mxCell id="0" />
        <mxCell id="1" parent="0" />
        <mxCell id="t_sFelF2Wt-cX6Uoet53-53" value="" style="group" vertex="1" connectable="0" parent="1">
          <mxGeometry x="860" y="150" width="460" height="370" as="geometry" />
        </mxCell>
        <mxCell id="t_sFelF2Wt-cX6Uoet53-51" style="edgeStyle=orthogonalEdgeStyle;rounded=1;orthogonalLoop=1;jettySize=auto;html=1;fontSize=12;endArrow=classic;endFill=1;" edge="1" parent="t_sFelF2Wt-cX6Uoet53-53" source="U7eb7ub3qmSpnm3P4M1d-21">
          <mxGeometry relative="1" as="geometry">
            <mxPoint x="194.96895331341264" y="130" as="targetPoint" />
          </mxGeometry>
        </mxCell>
        <mxCell id="U7eb7ub3qmSpnm3P4M1d-5" value="&lt;font style=&quot;font-size: 12px;&quot;&gt;Tmin&lt;/font&gt;" style="rounded=1;whiteSpace=wrap;html=1;fontSize=12;fontStyle=1;fillColor=#f8cecc;strokeColor=#b85450;" parent="t_sFelF2Wt-cX6Uoet53-53" vertex="1">
          <mxGeometry x="97.48447665670632" width="48.74223832835316" height="30" as="geometry" />
        </mxCell>
        <mxCell id="U7eb7ub3qmSpnm3P4M1d-7" value="&lt;font style=&quot;font-size: 12px;&quot;&gt;Td&lt;/font&gt;" style="rounded=1;whiteSpace=wrap;html=1;fontSize=12;fontStyle=1;fillColor=#f8cecc;strokeColor=#b85450;" parent="t_sFelF2Wt-cX6Uoet53-53" vertex="1">
          <mxGeometry x="243.7111916417658" width="48.74223832835316" height="30" as="geometry" />
        </mxCell>
        <mxCell id="U7eb7ub3qmSpnm3P4M1d-9" value="&lt;font style=&quot;font-size: 12px;&quot;&gt;Ws&lt;/font&gt;" style="rounded=1;whiteSpace=wrap;html=1;fontSize=12;fontStyle=1;fillColor=#f8cecc;strokeColor=#b85450;" parent="t_sFelF2Wt-cX6Uoet53-53" vertex="1">
          <mxGeometry x="316.8245491342955" width="48.74223832835316" height="30" as="geometry" />
        </mxCell>
        <mxCell id="U7eb7ub3qmSpnm3P4M1d-21" value="&lt;font style=&quot;font-size: 12px;&quot;&gt;Quality control, gap-filling and homogenization&lt;/font&gt;" style="shape=parallelogram;perimeter=parallelogramPerimeter;whiteSpace=wrap;html=1;fixedSize=1;fontSize=12;fontStyle=1;fillColor=#dae8fc;strokeColor=#6c8ebf;rounded=1;" parent="t_sFelF2Wt-cX6Uoet53-53" vertex="1">
          <mxGeometry y="70" width="389.9379066268253" height="40" as="geometry" />
        </mxCell>
        <mxCell id="t_sFelF2Wt-cX6Uoet53-15" style="edgeStyle=orthogonalEdgeStyle;orthogonalLoop=1;jettySize=auto;html=1;entryX=0.5;entryY=0;entryDx=0;entryDy=0;fontSize=12;rounded=1;endArrow=open;endFill=0;" edge="1" parent="t_sFelF2Wt-cX6Uoet53-53" source="U7eb7ub3qmSpnm3P4M1d-5" target="U7eb7ub3qmSpnm3P4M1d-21">
          <mxGeometry relative="1" as="geometry" />
        </mxCell>
        <mxCell id="t_sFelF2Wt-cX6Uoet53-18" style="edgeStyle=orthogonalEdgeStyle;orthogonalLoop=1;jettySize=auto;html=1;entryX=0.5;entryY=0;entryDx=0;entryDy=0;fontSize=12;rounded=1;endArrow=open;endFill=0;" edge="1" parent="t_sFelF2Wt-cX6Uoet53-53" source="U7eb7ub3qmSpnm3P4M1d-7" target="U7eb7ub3qmSpnm3P4M1d-21">
          <mxGeometry relative="1" as="geometry" />
        </mxCell>
        <mxCell id="t_sFelF2Wt-cX6Uoet53-19" style="edgeStyle=orthogonalEdgeStyle;orthogonalLoop=1;jettySize=auto;html=1;entryX=0.5;entryY=0;entryDx=0;entryDy=0;fontSize=12;rounded=1;endArrow=open;endFill=0;" edge="1" parent="t_sFelF2Wt-cX6Uoet53-53" source="U7eb7ub3qmSpnm3P4M1d-9" target="U7eb7ub3qmSpnm3P4M1d-21">
          <mxGeometry relative="1" as="geometry">
            <Array as="points">
              <mxPoint x="341.1956682984721" y="50" />
              <mxPoint x="194.96895331341264" y="50" />
            </Array>
          </mxGeometry>
        </mxCell>
        <mxCell id="U7eb7ub3qmSpnm3P4M1d-32" value="&lt;font style=&quot;font-size: 12px&quot;&gt;Climate aided interpolation&lt;/font&gt;" style="shape=parallelogram;perimeter=parallelogramPerimeter;whiteSpace=wrap;html=1;fixedSize=1;fontSize=18;fontStyle=1;fillColor=#dae8fc;strokeColor=#6c8ebf;rounded=1;" parent="t_sFelF2Wt-cX6Uoet53-53" vertex="1">
          <mxGeometry x="19.496895331341264" y="130" width="350.9441159641427" height="40" as="geometry" />
        </mxCell>
        <mxCell id="U7eb7ub3qmSpnm3P4M1d-46" value="&lt;font style=&quot;font-size: 12px&quot;&gt;FAO Penman-Monteith Equation&lt;/font&gt;" style="shape=parallelogram;perimeter=parallelogramPerimeter;whiteSpace=wrap;html=1;fixedSize=1;fontSize=19;fontStyle=1;fillColor=#dae8fc;strokeColor=#6c8ebf;rounded=1;" parent="t_sFelF2Wt-cX6Uoet53-53" vertex="1">
          <mxGeometry x="58.49068599402379" y="280" width="272.9565346387777" height="40" as="geometry" />
        </mxCell>
        <mxCell id="U7eb7ub3qmSpnm3P4M1d-56" value="&lt;font style=&quot;font-size: 12px&quot; color=&quot;#000000&quot;&gt;&lt;font style=&quot;font-size: 12px&quot;&gt;&lt;font style=&quot;font-size: 12px&quot;&gt;ET&lt;sub&gt;o&lt;/sub&gt; (&lt;/font&gt;&lt;/font&gt;&lt;font style=&quot;font-size: 12px&quot;&gt;PISCOeo_pm)&lt;/font&gt;&lt;/font&gt;" style="rounded=1;whiteSpace=wrap;html=1;fontSize=16;fontStyle=1;fillColor=#f5f5f5;strokeColor=#666666;fontColor=#333333;" parent="t_sFelF2Wt-cX6Uoet53-53" vertex="1">
          <mxGeometry x="116.98137198804758" y="339" width="155.9751626507301" height="31" as="geometry" />
        </mxCell>
        <mxCell id="t_sFelF2Wt-cX6Uoet53-40" style="edgeStyle=orthogonalEdgeStyle;rounded=1;orthogonalLoop=1;jettySize=auto;html=1;entryX=0.5;entryY=0;entryDx=0;entryDy=0;fontSize=12;" edge="1" parent="t_sFelF2Wt-cX6Uoet53-53" source="U7eb7ub3qmSpnm3P4M1d-46" target="U7eb7ub3qmSpnm3P4M1d-56">
          <mxGeometry relative="1" as="geometry" />
        </mxCell>
        <mxCell id="t_sFelF2Wt-cX6Uoet53-16" style="edgeStyle=orthogonalEdgeStyle;orthogonalLoop=1;jettySize=auto;html=1;fontSize=12;rounded=1;" edge="1" parent="t_sFelF2Wt-cX6Uoet53-53" source="t_sFelF2Wt-cX6Uoet53-8">
          <mxGeometry relative="1" as="geometry">
            <mxPoint x="194.96895331341264" y="70" as="targetPoint" />
            <Array as="points">
              <mxPoint x="194.96895331341264" y="70" />
              <mxPoint x="194.96895331341264" y="70" />
            </Array>
          </mxGeometry>
        </mxCell>
        <mxCell id="t_sFelF2Wt-cX6Uoet53-8" value="&lt;font style=&quot;font-size: 12px;&quot;&gt;Ws&lt;/font&gt;" style="rounded=1;whiteSpace=wrap;html=1;fontSize=12;fontStyle=1;fillColor=#f8cecc;strokeColor=#b85450;" vertex="1" parent="t_sFelF2Wt-cX6Uoet53-53">
          <mxGeometry x="170.59783414923606" width="48.74223832835316" height="30" as="geometry" />
        </mxCell>
        <mxCell id="t_sFelF2Wt-cX6Uoet53-52" style="edgeStyle=orthogonalEdgeStyle;rounded=1;orthogonalLoop=1;jettySize=auto;html=1;entryX=0.5;entryY=0;entryDx=0;entryDy=0;fontSize=12;endArrow=classic;endFill=1;" edge="1" parent="t_sFelF2Wt-cX6Uoet53-53" source="t_sFelF2Wt-cX6Uoet53-13" target="U7eb7ub3qmSpnm3P4M1d-21">
          <mxGeometry relative="1" as="geometry" />
        </mxCell>
        <mxCell id="t_sFelF2Wt-cX6Uoet53-13" value="&lt;font style=&quot;font-size: 12px&quot;&gt;Tmax&lt;/font&gt;" style="rounded=1;whiteSpace=wrap;html=1;fontSize=12;fontStyle=1;fillColor=#f8cecc;strokeColor=#b85450;" vertex="1" parent="t_sFelF2Wt-cX6Uoet53-53">
          <mxGeometry x="24.37111916417658" width="48.74223832835316" height="30" as="geometry" />
        </mxCell>
        <mxCell id="t_sFelF2Wt-cX6Uoet53-23" style="edgeStyle=orthogonalEdgeStyle;rounded=1;orthogonalLoop=1;jettySize=auto;html=1;entryX=0.5;entryY=1;entryDx=0;entryDy=0;fontSize=12;endArrow=open;endFill=0;" edge="1" parent="t_sFelF2Wt-cX6Uoet53-53" source="U7eb7ub3qmSpnm3P4M1d-34" target="U7eb7ub3qmSpnm3P4M1d-32">
          <mxGeometry relative="1" as="geometry">
            <Array as="points">
              <mxPoint x="24.37111916417658" y="190" />
              <mxPoint x="194.96895331341264" y="190" />
            </Array>
          </mxGeometry>
        </mxCell>
        <mxCell id="t_sFelF2Wt-cX6Uoet53-25" value="" style="group" vertex="1" connectable="0" parent="t_sFelF2Wt-cX6Uoet53-53">
          <mxGeometry y="210" width="389.9379066268253" height="30" as="geometry" />
        </mxCell>
        <mxCell id="U7eb7ub3qmSpnm3P4M1d-34" value="&lt;font style=&quot;font-size: 12px;&quot;&gt;LST&lt;/font&gt;" style="rounded=1;whiteSpace=wrap;html=1;fontSize=12;fontStyle=1;fillColor=#f5f5f5;strokeColor=#666666;" parent="t_sFelF2Wt-cX6Uoet53-25" vertex="1">
          <mxGeometry width="48.74223832835316" height="30" as="geometry" />
        </mxCell>
        <mxCell id="U7eb7ub3qmSpnm3P4M1d-38" value="&lt;font style=&quot;font-size: 12px;&quot;&gt;DEM&lt;/font&gt;" style="rounded=1;whiteSpace=wrap;html=1;fontSize=12;fontStyle=1;fillColor=#f5f5f5;strokeColor=#666666;" parent="t_sFelF2Wt-cX6Uoet53-25" vertex="1">
          <mxGeometry x="136.47826731938886" width="48.74223832835316" height="30" as="geometry" />
        </mxCell>
        <mxCell id="U7eb7ub3qmSpnm3P4M1d-39" value="&lt;font style=&quot;font-size: 12px;&quot;&gt;X&lt;/font&gt;" style="rounded=1;whiteSpace=wrap;html=1;fontSize=12;fontStyle=1;fillColor=#f5f5f5;strokeColor=#666666;" parent="t_sFelF2Wt-cX6Uoet53-25" vertex="1">
          <mxGeometry x="204.71740097908327" width="48.74223832835316" height="30" as="geometry" />
        </mxCell>
        <mxCell id="U7eb7ub3qmSpnm3P4M1d-40" value="&lt;span style=&quot;font-size: 12px;&quot;&gt;Y&lt;/span&gt;" style="rounded=1;whiteSpace=wrap;html=1;fontSize=12;fontStyle=1;fillColor=#f5f5f5;strokeColor=#666666;" parent="t_sFelF2Wt-cX6Uoet53-25" vertex="1">
          <mxGeometry x="272.9565346387777" width="48.25481594506963" height="30" as="geometry" />
        </mxCell>
        <mxCell id="wpJQsXBcN3tg3W_rkoM8-5" value="&lt;span style=&quot;font-size: 12px;&quot;&gt;TDI&lt;/span&gt;" style="rounded=1;whiteSpace=wrap;html=1;fontSize=12;fontStyle=1;fillColor=#f5f5f5;strokeColor=#666666;" parent="t_sFelF2Wt-cX6Uoet53-25" vertex="1">
          <mxGeometry x="341.1956682984721" width="48.74223832835316" height="30" as="geometry" />
        </mxCell>
        <mxCell id="t_sFelF2Wt-cX6Uoet53-21" value="&lt;font style=&quot;font-size: 12px&quot;&gt;CC&lt;/font&gt;" style="rounded=1;whiteSpace=wrap;html=1;fontSize=12;fontStyle=1;fillColor=#f5f5f5;strokeColor=#666666;" vertex="1" parent="t_sFelF2Wt-cX6Uoet53-25">
          <mxGeometry x="68.23913365969443" width="48.74223832835316" height="30" as="geometry" />
        </mxCell>
        <mxCell id="t_sFelF2Wt-cX6Uoet53-26" style="edgeStyle=orthogonalEdgeStyle;rounded=1;orthogonalLoop=1;jettySize=auto;html=1;entryX=0.5;entryY=1;entryDx=0;entryDy=0;fontSize=12;endArrow=open;endFill=0;" edge="1" parent="t_sFelF2Wt-cX6Uoet53-53" source="t_sFelF2Wt-cX6Uoet53-21" target="U7eb7ub3qmSpnm3P4M1d-32">
          <mxGeometry relative="1" as="geometry" />
        </mxCell>
        <mxCell id="t_sFelF2Wt-cX6Uoet53-27" style="edgeStyle=orthogonalEdgeStyle;rounded=1;orthogonalLoop=1;jettySize=auto;html=1;fontSize=12;endArrow=open;endFill=0;" edge="1" parent="t_sFelF2Wt-cX6Uoet53-53" source="U7eb7ub3qmSpnm3P4M1d-38">
          <mxGeometry relative="1" as="geometry">
            <mxPoint x="194.96895331341264" y="170" as="targetPoint" />
            <Array as="points">
              <mxPoint x="160.84938648356544" y="190" />
              <mxPoint x="194.96895331341264" y="190" />
            </Array>
          </mxGeometry>
        </mxCell>
        <mxCell id="t_sFelF2Wt-cX6Uoet53-28" style="edgeStyle=orthogonalEdgeStyle;rounded=1;orthogonalLoop=1;jettySize=auto;html=1;fontSize=12;" edge="1" parent="t_sFelF2Wt-cX6Uoet53-53" source="U7eb7ub3qmSpnm3P4M1d-39">
          <mxGeometry relative="1" as="geometry">
            <mxPoint x="194.96895331341264" y="170" as="targetPoint" />
            <Array as="points">
              <mxPoint x="229.08852014325984" y="190" />
              <mxPoint x="194.96895331341264" y="190" />
            </Array>
          </mxGeometry>
        </mxCell>
        <mxCell id="t_sFelF2Wt-cX6Uoet53-29" style="edgeStyle=orthogonalEdgeStyle;rounded=1;orthogonalLoop=1;jettySize=auto;html=1;fontSize=12;endArrow=open;endFill=0;" edge="1" parent="t_sFelF2Wt-cX6Uoet53-53" source="U7eb7ub3qmSpnm3P4M1d-40">
          <mxGeometry relative="1" as="geometry">
            <mxPoint x="194.96895331341264" y="170" as="targetPoint" />
            <Array as="points">
              <mxPoint x="297.3276538029543" y="190" />
              <mxPoint x="194.96895331341264" y="190" />
            </Array>
          </mxGeometry>
        </mxCell>
        <mxCell id="t_sFelF2Wt-cX6Uoet53-30" style="edgeStyle=orthogonalEdgeStyle;rounded=1;orthogonalLoop=1;jettySize=auto;html=1;fontSize=12;endArrow=open;endFill=0;" edge="1" parent="t_sFelF2Wt-cX6Uoet53-53" source="wpJQsXBcN3tg3W_rkoM8-5">
          <mxGeometry relative="1" as="geometry">
            <mxPoint x="194.96895331341264" y="170" as="targetPoint" />
            <Array as="points">
              <mxPoint x="365.5667874626487" y="190" />
              <mxPoint x="194.96895331341264" y="190" />
            </Array>
          </mxGeometry>
        </mxCell>
        <mxCell id="t_sFelF2Wt-cX6Uoet53-33" style="edgeStyle=orthogonalEdgeStyle;rounded=1;orthogonalLoop=1;jettySize=auto;html=1;entryX=0.5;entryY=0;entryDx=0;entryDy=0;fontSize=12;" edge="1" parent="t_sFelF2Wt-cX6Uoet53-53" source="U7eb7ub3qmSpnm3P4M1d-34" target="U7eb7ub3qmSpnm3P4M1d-46">
          <mxGeometry relative="1" as="geometry">
            <Array as="points">
              <mxPoint x="24.37111916417658" y="260" />
              <mxPoint x="194.96895331341264" y="260" />
            </Array>
          </mxGeometry>
        </mxCell>
        <mxCell id="t_sFelF2Wt-cX6Uoet53-34" style="edgeStyle=orthogonalEdgeStyle;rounded=1;orthogonalLoop=1;jettySize=auto;html=1;entryX=0.5;entryY=0;entryDx=0;entryDy=0;fontSize=12;" edge="1" parent="t_sFelF2Wt-cX6Uoet53-53" source="t_sFelF2Wt-cX6Uoet53-21" target="U7eb7ub3qmSpnm3P4M1d-46">
          <mxGeometry relative="1" as="geometry" />
        </mxCell>
        <mxCell id="t_sFelF2Wt-cX6Uoet53-35" style="edgeStyle=orthogonalEdgeStyle;rounded=1;orthogonalLoop=1;jettySize=auto;html=1;entryX=0.5;entryY=0;entryDx=0;entryDy=0;fontSize=12;" edge="1" parent="t_sFelF2Wt-cX6Uoet53-53" source="U7eb7ub3qmSpnm3P4M1d-38" target="U7eb7ub3qmSpnm3P4M1d-46">
          <mxGeometry relative="1" as="geometry" />
        </mxCell>
        <mxCell id="t_sFelF2Wt-cX6Uoet53-36" style="edgeStyle=orthogonalEdgeStyle;rounded=1;orthogonalLoop=1;jettySize=auto;html=1;entryX=0.5;entryY=0;entryDx=0;entryDy=0;fontSize=12;" edge="1" parent="t_sFelF2Wt-cX6Uoet53-53" source="U7eb7ub3qmSpnm3P4M1d-39" target="U7eb7ub3qmSpnm3P4M1d-46">
          <mxGeometry relative="1" as="geometry" />
        </mxCell>
        <mxCell id="t_sFelF2Wt-cX6Uoet53-38" style="edgeStyle=orthogonalEdgeStyle;rounded=1;orthogonalLoop=1;jettySize=auto;html=1;entryX=0.5;entryY=0;entryDx=0;entryDy=0;fontSize=12;" edge="1" parent="t_sFelF2Wt-cX6Uoet53-53" source="U7eb7ub3qmSpnm3P4M1d-40" target="U7eb7ub3qmSpnm3P4M1d-46">
          <mxGeometry relative="1" as="geometry" />
        </mxCell>
        <mxCell id="t_sFelF2Wt-cX6Uoet53-39" style="edgeStyle=orthogonalEdgeStyle;rounded=1;orthogonalLoop=1;jettySize=auto;html=1;entryX=0.5;entryY=0;entryDx=0;entryDy=0;fontSize=12;" edge="1" parent="t_sFelF2Wt-cX6Uoet53-53" source="wpJQsXBcN3tg3W_rkoM8-5" target="U7eb7ub3qmSpnm3P4M1d-46">
          <mxGeometry relative="1" as="geometry">
            <Array as="points">
              <mxPoint x="365.5667874626487" y="260" />
              <mxPoint x="194.96895331341264" y="260" />
            </Array>
          </mxGeometry>
        </mxCell>
        <mxCell id="U7eb7ub3qmSpnm3P4M1d-66" value="" style="rounded=1;whiteSpace=wrap;html=1;fontSize=11;fontStyle=1;fillColor=#f8cecc;strokeColor=#b85450;" parent="t_sFelF2Wt-cX6Uoet53-53" vertex="1">
          <mxGeometry x="350.9441159641427" y="301.3404255319149" width="23.134786624930346" height="16.73758865248227" as="geometry" />
        </mxCell>
        <mxCell id="U7eb7ub3qmSpnm3P4M1d-67" value="" style="rounded=1;whiteSpace=wrap;html=1;fontSize=11;fontStyle=1;fillColor=#dae8fc;strokeColor=#6c8ebf;" parent="t_sFelF2Wt-cX6Uoet53-53" vertex="1">
          <mxGeometry x="350.9441159641427" y="321.8439716312057" width="23.134786624930346" height="17.156028368794328" as="geometry" />
        </mxCell>
        <mxCell id="U7eb7ub3qmSpnm3P4M1d-72" value="Observed data" style="text;html=1;strokeColor=none;fillColor=none;align=left;verticalAlign=middle;whiteSpace=wrap;rounded=0;fontSize=10;fontStyle=1" parent="t_sFelF2Wt-cX6Uoet53-53" vertex="1">
          <mxGeometry x="375.6466823489521" y="301.34" width="72.78191027189693" height="16.74" as="geometry" />
        </mxCell>
        <mxCell id="U7eb7ub3qmSpnm3P4M1d-83" value="" style="rounded=1;whiteSpace=wrap;html=1;fontSize=11;fontStyle=1;fillColor=#f5f5f5;strokeColor=#666666;fontColor=#333333;" parent="t_sFelF2Wt-cX6Uoet53-53" vertex="1">
          <mxGeometry x="350.9441159641427" y="280" width="23.134786624930346" height="17.156028368794328" as="geometry" />
        </mxCell>
        <mxCell id="mp60AICXdKhl7RRevxMm-46" value="Gridded data" style="text;html=1;strokeColor=none;fillColor=none;align=left;verticalAlign=middle;whiteSpace=wrap;rounded=0;fontSize=10;fontStyle=1" parent="t_sFelF2Wt-cX6Uoet53-53" vertex="1">
          <mxGeometry x="375.64668234895214" y="280.41999999999996" width="72.78191027189693" height="16.74" as="geometry" />
        </mxCell>
        <mxCell id="mp60AICXdKhl7RRevxMm-47" value="Process" style="text;html=1;strokeColor=none;fillColor=none;align=left;verticalAlign=middle;whiteSpace=wrap;rounded=0;fontSize=10;fontStyle=1" parent="t_sFelF2Wt-cX6Uoet53-53" vertex="1">
          <mxGeometry x="375.646682348952" y="321.84" width="43.86801449551784" height="16.74" as="geometry" />
        </mxCell>
      </root>
    </mxGraphModel>
  </diagram>
</mxfile>
